<svg width="40" height="40" viewBox="0 0 40 40" fill="none" xmlns="http://www.w3.org/2000/svg">
<path d="M10 10H11.4295C11.9554 10 12.4144 10.3811 12.5505 10.9278L12.9455 12.5244M12.9455 12.5244C18.6908 12.351 24.4306 13.0391 30 14.5689C29.1502 17.2956 28.1405 19.9444 26.9843 22.5H15.4146M12.9455 12.5244L15.4146 22.5M15.4146 22.5C14.594 22.5 13.807 22.8512 13.2268 23.4763C12.6465 24.1014 12.3205 24.9493 12.3205 25.8333H28.5644M13.8676 29.1667C13.8676 29.3877 13.7861 29.5996 13.641 29.7559C13.496 29.9122 13.2992 30 13.0941 30C12.8889 30 12.6922 29.9122 12.5471 29.7559C12.402 29.5996 12.3205 29.3877 12.3205 29.1667C12.3205 28.9457 12.402 28.7337 12.5471 28.5774C12.6922 28.4211 12.8889 28.3333 13.0941 28.3333C13.2992 28.3333 13.496 28.4211 13.641 28.5774C13.7861 28.7337 13.8676 28.9457 13.8676 29.1667ZM27.0173 29.1667C27.0173 29.3877 26.9358 29.5996 26.7908 29.7559C26.6457 29.9122 26.449 30 26.2438 30C26.0387 30 25.8419 29.9122 25.6969 29.7559C25.5518 29.5996 25.4703 29.3877 25.4703 29.1667C25.4703 28.9457 25.5518 28.7337 25.6969 28.5774C25.8419 28.4211 26.0387 28.3333 26.2438 28.3333C26.449 28.3333 26.6457 28.4211 26.7908 28.5774C26.9358 28.7337 27.0173 28.9457 27.0173 29.1667Z" stroke="#343434" stroke-width="1.5" stroke-linecap="round" stroke-linejoin="round"/>
</svg>
