<svg width="229" height="36" viewBox="0 0 229 36" fill="none" xmlns="http://www.w3.org/2000/svg">
<path d="M194.535 34.7538V28.1097H175.388V20.4434H190.706V13.7993H175.388V7.66628H193.003V0.766628H168.495V34.7538H194.535ZM204.236 0.766628V34.7538H229V28.1097H211.129V0.766628H204.236ZM42.3794 0.766628V34.7538H49.2724V20.4434H65.356V34.7538H71.9947V0.766628H65.356V13.7993H49.2724V0.766628H42.3794ZM111.054 34.7538H118.457L102.884 0.766628H93.949L78.6313 34.7538H85.7806L89.3537 27.0875H107.481L111.054 34.7538ZM125.096 0.766628V34.7538H131.989V10.2217L150.369 34.7538H155.73V0.766628H148.837V21.21L133.521 0.766628H125.096ZM27.5723 23.2544C26.648 25.0293 25.2544 26.5161 23.5437 27.5525C21.833 28.589 19.8708 29.1353 17.8711 29.1319C11.6887 29.1265 6.69982 24.1339 6.63812 17.888C6.69982 11.8157 11.6887 6.82193 17.8711 6.89965C22.0718 6.82193 25.7523 9.1825 27.5723 12.7771L33.6994 9.45508C30.5593 3.84059 24.6439 0.0457847 17.8711 0C7.95076 0.0457847 -0.0686849 8.07302 0.00045747 17.888C-0.0697486 27.8765 7.9497 35.9027 17.8711 35.776C24.6619 35.9027 30.5912 32.0876 33.6994 26.5764L27.5723 23.2544Z" fill="black"/>
<path d="M104.671 20.1878H92.417L98.5451 6.64404L104.671 20.1878Z" fill="white"/>
</svg>
