<svg width="120" height="48" viewBox="0 0 120 48" fill="none" xmlns="http://www.w3.org/2000/svg">
<path d="M100.997 29.0995C100.965 28.8651 100.965 28.6659 102.097 28.3331C103.229 28.0003 105.931 27.0675 107.597 26.1323C109.264 25.1972 109.531 25.066 109.932 25.3331C110.332 25.6003 110.199 26.2003 110.199 26.6667V31.1666C110.799 30.1659 112.798 26.8659 114.366 25.9003C115.599 25.1339 116.032 25.066 116.799 25.066C117.732 25.0331 119.899 25.6331 119.998 27.9323C120.063 29.7323 118.732 30.4659 117.898 30.3323C117.232 30.2315 116.731 29.5987 116.332 28.9987C115.932 28.3659 115.299 27.9979 114.633 28.1995C114 28.4339 110.4 30.7658 110.166 34.0986C110.032 36.5314 110.166 44.1648 110.166 44.1648C110.166 45.332 110.6 45.7655 111.132 46.0655C111.631 46.3655 113.532 46.3984 114.066 46.4663C114.6 46.5319 114.6 46.6655 114.6 46.8319C114.6 46.9983 114.6 47.0663 114.134 47.0663H101.469C101.068 47.0663 100.901 47.0007 100.901 46.7335C100.901 46.4007 101.436 46.4663 101.834 46.4007C102.235 46.3351 104.368 46.5343 105.001 45.4351C105.467 44.7343 105.401 43.6023 105.401 43.6023L105.336 30.2034C105.336 29.137 105.003 28.9706 104.703 28.8042C104.403 28.6378 103.904 28.537 102.87 28.9049C101.865 29.2331 101.164 29.5331 100.997 29.0995Z" fill="#211E1E"/>
<path d="M56.6665 29.1322C56.5001 28.7994 56.8001 28.5979 57.7657 28.333C58.7993 28.0659 61.0985 27.3674 62.9312 26.3339C64.764 25.3003 65.064 25.1995 65.4648 25.3331C65.8655 25.4667 65.8304 26.1323 65.8304 26.6995V44.0663C65.8304 45.0319 65.964 45.4327 66.3976 45.8663C66.8311 46.2671 67.9303 46.4991 69.3647 46.4991C69.9975 46.4991 70.1991 46.5647 70.1991 46.8647C70.1991 47.1319 69.9998 47.1319 69.7327 47.1319H57.1657C56.7649 47.1319 56.6993 46.9655 56.6993 46.7991C56.6993 46.5999 56.8657 46.4663 57.4657 46.4663C57.9649 46.4663 60.2313 46.6327 60.7656 45.4655C60.9649 44.9991 61.0656 44.3991 61.0656 43.7992V30.0322C61.0656 28.9987 60.2664 28.5323 59.3313 28.7666C58.1665 28.933 56.8657 29.533 56.6665 29.1322Z" fill="#211E1E"/>
<path d="M63.0646 17.1348C64.7638 17.1348 66.1653 15.7356 66.1653 14.0341C66.1653 12.3349 64.7661 10.9333 63.0646 10.9333C61.3631 10.9333 59.9639 12.2997 59.9639 14.0341C59.9662 15.7333 61.3654 17.1348 63.0646 17.1348Z" fill="#211E1E"/>
<path d="M78.198 36.7985C78.8308 42.4328 82.1636 46.7991 86.3307 46.0655C90.4978 45.332 92.5649 41.3664 92.0634 34.9986C91.5642 28.5323 88.3627 25.298 84.0315 25.6988C79.5972 26.0995 77.5652 31.1666 78.198 36.7985ZM82.2972 24.7003C87.6643 23.6996 95.2977 24.8667 97.0297 33.2666C98.764 41.6664 92.9962 46.1335 87.9643 47.1999C83.0636 48.2663 74.7645 47.4999 73.2317 38.4673C71.8982 30.4002 77.7645 25.5323 82.2972 24.7003Z" fill="#211E1E"/>
<path d="M18.834 45.7327H21.9347C33.5009 45.7327 36.6016 44.6663 40.668 39.2664C44.7319 33.8665 45.2335 26.0995 45.2335 23.4675C45.2335 20.8355 44.5327 14.2685 40.4664 8.70218C36.4001 3.13588 29.601 1.70153 23.6339 1.70153H18.8012C17.6668 1.70153 17.6012 2.20074 17.6012 3.00229V44.7343C17.6012 45.5991 17.934 45.7327 18.834 45.7327ZM0 46.6983C0 46.2647 0.534365 46.1991 1.06639 46.1991C6.96549 46.0327 8.06703 45.8335 8.73264 45.1327C9.09826 44.7319 9.63263 44.432 9.63263 41.6992V4.13429C9.63263 0.768735 5.53349 1.30076 2.63198 1.00076C1.63122 0.899984 1.53278 0.766393 1.53278 0.466399C1.53278 0.166404 1.732 0.0328119 2.26636 0H25.9987C52.0982 0 53.4318 19.066 53.4318 24.1659C53.4318 35.0993 46.1991 47.0991 31.0986 47.0991H0.766391C0.400773 47.1319 0 47.0663 0 46.6983Z" fill="#211E1E"/>
</svg>
