<svg width="158" height="91" viewBox="0 0 158 91" fill="none" xmlns="http://www.w3.org/2000/svg">
<path d="M20.145 44.7594H22.8983V50.028H13.1055V44.7594H15.8463V41.6725H7.14062V44.7594H9.91062V60.2772H7.14062V63.3495H15.8463V60.2772H13.1034V53.0773H22.8963V60.2772H20.145V63.3495H28.8715V60.2772H26.0932V44.7594H28.8736V41.6725H20.1471M125.159 60.2772H116.578V53.046H123.959V49.9862H116.576V44.7594H125.224V47.7253H128.264V41.6725H110.478V44.7594H113.379V60.2772H110.478V63.3495H128.306V56.1266H125.161M50.7732 56.1266H47.6283V60.2772H39.0476V53.046H46.4308V49.9862H39.0476V44.7594H47.6971V47.7253H50.7378V41.6725H32.9515V44.7594H35.8527V60.2772H32.9495V63.3495H50.7732M117.405 40.6026H123.643L122.047 38.6983H115.654M145.653 50.954C143.476 50.3325 141.939 50.4743 139.725 49.7339C137.726 49.0623 137.33 47.8317 137.33 47.0162C137.33 46.1965 138.213 44.0711 141.354 44.0711C144.499 44.0711 146.557 46.1527 146.673 47.986L146.686 47.9777V47.986H149.706V41.6663H146.784V43.0429L146.875 43.4725C146.854 43.41 146.771 43.2368 146.463 42.9302C146.459 42.924 146.459 42.9198 146.459 42.9135C145.532 42.0793 143.766 41.1699 141.11 41.1699C137.893 41.1699 134.102 43.168 134.102 47.0308C134.102 50.7955 136.818 52.1095 139.121 52.7185C141.429 53.3317 142.606 53.3317 144.53 53.8532C146.45 54.3746 147.696 55.5343 147.696 57.2529C147.696 58.8798 146.696 61.0135 142.631 61.0135C138.559 61.0135 136.951 58.8151 136.481 55.6698L136.447 55.6844H133.573V63.3557H136.576V61.9208L136.568 61.9103L136.46 61.5307C136.46 61.5307 136.568 61.7873 136.91 62.025L136.939 62.0668C138.459 63.2348 140.454 64.0107 143.012 64.0107C145.865 64.0107 150.86 62.5444 150.86 57.3509C150.851 53.6342 148.881 51.8822 145.653 50.9519V50.954ZM97.5923 60.2772V63.3495H106.423V60.2772H103.528V44.7594H106.423V41.6725H98.5296L93.302 54.3412L93.1937 54.9628L93.0896 54.3308L87.862 41.6705H79.9769V44.7573H82.8656V60.2751H79.9727V63.3474H88.7971V60.2772H86.0375V46.0067L86.0583 45.0639L86.3145 45.8148L92.3335 60.2376H94.0455L100.085 45.8106L100.306 45.0514L100.339 45.9066V60.2772M37.2731 32.5454V33.2546H40.2514C39.9567 33.0323 39.6731 32.7956 39.4017 32.5454H37.2731ZM117.49 32.5579H115.941C115.51 32.6414 115.191 33.0064 115.156 33.2546H117.488V32.5558L117.49 32.5579ZM37.2731 35.3236H117.478V33.8219H65.8936C64.5753 34.4518 62.9029 34.4226 61.5991 33.8219H45.9372C44.4585 34.4726 42.7548 34.4684 41.2719 33.8281L37.2731 33.8177V35.3194V35.3236ZM59.858 32.5454H47.745C47.7033 32.6288 47.1493 33.1086 46.9244 33.2546H60.6286C60.3445 33.0497 60.0858 32.8116 59.858 32.5454Z" fill="black"/>
<path d="M38.6481 26.9721C38.4996 27.447 38.4203 27.9408 38.4127 28.4384C38.4507 29.7876 39.0124 31.0688 39.9787 32.0097C40.9449 32.9507 42.2394 33.4772 43.5872 33.4775C44.935 33.4778 46.2297 32.9517 47.1963 32.0112C48.1629 31.0706 48.7252 29.7896 48.7637 28.4405C48.7637 27.8273 48.6388 27.2454 48.443 26.6989C49.0386 26.5946 49.6218 26.4695 50.1966 26.3089C50.4674 26.2359 50.457 26.1128 50.2445 26.0481C49.4781 25.8125 48.6617 25.631 47.8286 25.4767C47.3531 24.792 46.7194 24.2326 45.9814 23.8462C45.2434 23.4598 44.4231 23.2578 43.5903 23.2574C42.9238 23.2574 42.2949 23.393 41.7159 23.6224C41.7075 23.6183 41.6992 23.6058 41.695 23.6016C41.5772 23.3887 41.5102 23.1513 41.4993 22.9081C41.4885 22.6649 41.5341 22.4226 41.6326 22.2C42.1595 21.3407 43.3279 21.0049 44.288 20.9235C44.6108 20.9068 45.3856 20.9444 45.4689 21.0361C45.6563 21.1863 45.9792 21.2406 46.3228 21.1196C46.6519 21.2447 46.7352 21.3428 47.1101 21.4596C50.4091 22.5858 54.0621 23.1803 57.7527 22.5024C58.3296 23.0489 58.6482 24.0083 59.0523 24.6716C59.1606 24.8384 59.2918 24.5464 61.11 24.4839C61.7515 24.4588 62.5387 24.463 63.2239 24.4797C61.8077 24.6424 60.5893 25.4391 59.8666 26.5904C58.7295 26.9534 57.8526 27.2996 57.5236 27.4998C57.1195 27.7438 57.0446 27.8794 57.5236 28.0046C58.1026 28.1568 58.6649 28.2548 59.2251 28.3237C59.1876 28.5531 59.1543 28.7888 59.1543 29.0286C59.1543 30.2487 59.6383 31.4187 60.4997 32.2814C61.3611 33.1441 62.5295 33.6287 63.7477 33.6287C64.966 33.6287 66.1343 33.1441 66.9957 32.2814C67.8572 31.4187 68.3411 30.2487 68.3411 29.0286C68.3411 28.2361 68.1224 27.4998 67.7705 26.8491C68.3495 26.6405 68.9576 26.4111 69.6032 26.1608C70.1031 26.3422 70.4426 26.6405 70.8008 27.0576C71.0924 27.3872 71.7526 27.2579 72.1441 27.1619C72.7794 26.9951 72.8772 26.4882 72.8731 25.9105C72.8731 25.6477 72.8856 25.3891 73.0105 25.1805C73.7541 23.4848 76.7261 23.2616 78.2506 22.8862C78.2506 22.8862 77.4529 23.8456 76.8885 24.0584C76.774 26.5341 75.8264 28.6887 75.7118 31.0497C76.4303 31.0789 76.3991 31.884 76.572 32.3429C76.372 32.7767 76.0263 32.3429 75.7118 32.4889C74.6205 31.884 75.9701 30.9079 75.0787 30.1591C75.5369 28.1777 76.2866 26.2484 76.2241 24.1481C75.9388 24.1773 75.8284 24.4943 75.7097 24.7237C75.5077 26.7114 74.935 28.5239 74.4184 30.3635C74.6475 30.4782 75.0495 30.5929 75.0224 30.9392C74.331 31.3709 75.0495 32.0655 74.7621 32.5577H67.6705L66.8832 33.2668H77.7591L77.8632 32.8664C76.2596 31.1978 76.8635 28.6949 77.6071 26.7969L79.4732 24.2649C81.0248 23.66 81.9724 21.762 83.6094 21.1571C83.6094 21.9643 82.6035 22.3105 82.0578 22.7694C81.4871 24.1209 79.6752 24.2649 79.4169 25.7624C80.1042 26.5675 81.1352 27.0848 81.9995 27.8335C82.8909 28.3821 82.5701 29.5313 83.2908 30.107C83.4074 30.2801 83.2908 30.5387 83.0866 30.6826C82.3306 30.8641 82.3535 31.3751 82.8097 31.8006C83.1012 32.0717 83.4345 32.4263 83.397 32.5598H78.3777C78.3777 32.7892 78.5818 32.8768 78.8025 33.2689H106.523C106.732 32.8768 106.28 32.4138 106.086 32.0279C104.128 31.2875 104.139 29.4333 104.024 27.3893C104.045 27.3058 103.912 27.1119 103.932 26.6906C103.641 26.4152 102.354 23.1344 102.939 20.5669L103.366 19.7221C103.768 19.1444 103.341 18.8357 103.626 18.2329L109.468 17.1025C109.572 17.0482 109.545 16.8105 109.435 16.702L107.66 17.0316C106.25 16.4371 104.182 15.1231 102.82 13.3398C103.243 10.449 103.033 8.10465 102.747 6.54036C103.601 5.83121 104.297 5.15961 104.297 5.15961C104.886 5.51418 105.013 5.34732 105.095 5.15544C105.001 5.04698 104.126 4.67572 104.27 4.29612C104.822 4.44212 104.945 4.27109 105.03 3.9624L104.643 3.82475H104.63L104.693 3.61617C104.805 3.38674 105.326 3.60366 105.526 3.54526C105.873 3.33251 105.484 3.0134 105.601 2.72557C104.788 2.03728 103.322 2.01642 102.435 1.3761C102.16 0.863015 102.048 0.6461 101.76 0.437527C101.464 0.228955 100.177 0.110068 99.9378 0.18724C99.7024 0.270669 99.2505 0.694071 99.2505 0.694071C98.3279 0.888044 97.7718 0.589785 97.1365 0.203926C97.1365 0.203926 97.2719 0.93393 97.9988 1.24262C97.3573 1.50542 97.0741 2.04771 96.9699 2.72765C96.0869 2.90703 96.0535 3.7872 96.1681 4.18766C95.4454 4.61941 95.5162 5.19298 95.7724 5.77281C95.1267 6.20664 95.2246 6.83236 95.4079 7.30999C94.8664 7.64371 95.4079 8.56977 95.4912 9.11206C97.047 8.79086 98.9902 12.2302 101.781 12.6536C102.306 10.1987 101.648 8.99526 101.044 7.78345C101.498 7.51856 101.991 7.15356 102.47 6.76979C102.749 8.32366 102.949 10.5742 102.637 13.1459C102.616 13.125 102.595 13.1083 102.583 13.0875C102.408 13.0875 102.233 12.9707 102.091 12.9143C102.12 12.9978 102.441 13.5088 102.377 13.6026C102.377 13.6026 101.473 14.2012 99.6795 13.4462C99.2005 14.5683 93.044 17.3256 93.044 17.3256C93.2731 19.0276 94.0812 20.1581 94.9143 21.08C96.2368 22.0602 97.6489 22.565 99.3171 22.9112C99.667 23.8164 100.796 26.8282 100.9 27.3121C101.012 27.796 101.281 27.796 101.281 27.796C101.441 28.0129 101.968 28.9723 102.027 29.4333L102.158 31.0601C102.214 31.4314 102.699 31.1519 102.791 31.4689L102.566 32.5619L84.1238 32.566C84.3821 31.2729 83.724 30.1424 84.0655 28.9911C83.3241 27.698 81.3122 26.8053 81.6538 25.1075C82.6326 23.7559 85.6734 22.4378 84.9861 20.8046C87.7498 19.4009 89.2077 21.7432 91.8257 21.5701C92.7379 21.52 93.7542 21.4199 94.5894 21.1738C93.5564 20.2769 92.5692 18.9588 92.0485 17.7803C86.5627 19.9912 81.2268 21.812 75.2786 23.0197L74.8204 22.8737C74.3685 22.9425 67.8163 24.4171 66.0793 25.095C65.6233 24.8203 65.1229 24.6276 64.6006 24.5256H64.7526C65.3087 24.5256 66.1585 24.2294 66.7604 24.0187C69.3054 23.0885 70.2426 19.4593 71.3839 17.1525C72.3836 20.74 74.7038 21.032 76.0492 20.5856L76.1742 21.7119C76.1742 21.7119 77.3488 21.6702 78.2319 21.3156C78.1423 21.1029 78.0236 20.5335 77.9403 19.7847C78.4755 19.5073 78.765 19.305 79.0087 19.1632C79.0816 20.0141 79.1337 20.8171 78.8796 21.2489L81.9078 20.4396C82.491 17.8179 84.0738 14.1741 86.8709 11.5127C83.1158 10.0173 80.3021 11.7255 79.5877 12.4096C76.0534 13.5401 75.9117 18.4248 76.018 20.1059C75.4056 20.2269 72.8356 21.1196 71.6193 16.6645C72.3274 14.9542 73.6708 13.052 75.1807 11.569C75.3119 11.4585 75.1599 11.2833 74.8579 11.4606C71.8234 13.5463 70.7133 17.2172 69.0826 20.3166C67.8038 22.2417 66.0772 23.2846 63.4884 23.174C60.2561 23.124 58.692 19.7472 57.2112 17.5551C54.941 12.5764 49.0678 14.3639 44.7025 13.3002C44.4588 13.1751 43.9735 11.7359 43.2779 11.7901C42.7843 11.8277 43.2487 12.3366 42.9655 12.5076C42.4177 12.2782 41.9575 11.8756 41.2702 11.9904C40.8391 12.078 40.7224 12.5368 40.7537 12.9415C41.0973 14.5224 42.7905 15.2149 44.0547 15.7906C44.54 16.5164 44.3588 19.0234 43.9548 19.8848C43.4341 20.8443 41.3868 20.5022 40.9765 22.7006C40.8974 23.1469 40.9973 23.5348 41.1806 23.8999C40.3856 24.3186 39.7125 24.9366 39.227 25.6936C38.3586 25.9021 37.5109 26.1357 36.7195 26.4194C36.5112 26.4945 36.5112 26.6155 36.782 26.678C37.3922 26.8032 38.0191 26.9075 38.6522 26.9867L38.6481 26.9721ZM103.324 14.6622C104.074 15.4819 105.865 16.727 107.011 17.1338L103.693 17.749C104.068 16.3412 102.791 15.801 103.324 14.6622ZM103.682 3.26786C103.807 3.21571 104.157 3.35129 104.301 3.38883C104.389 3.40969 104.355 3.5974 104.311 3.76426C104.095 3.81014 103.757 3.69126 103.712 3.57654C103.649 3.4514 103.56 3.32209 103.682 3.26786ZM103.71 4.123C103.751 4.36703 103.851 4.64443 103.995 4.85301C103.991 4.96564 103.376 5.53504 102.668 6.13573C102.493 5.26598 102.314 4.66738 102.272 4.42961C102.554 4.22938 103.314 4.01246 103.71 4.123ZM100.533 1.07159C100.658 1.02987 100.912 1.1133 100.981 1.16336C101.05 1.2155 100.994 1.42616 100.99 1.49708C100.99 1.56799 100.673 1.71816 100.673 1.71816C100.673 1.71816 100.373 1.48873 100.377 1.41782L100.363 1.41156C100.412 1.29445 100.469 1.18086 100.533 1.07159ZM100.923 7.50188C100.531 6.7093 100.215 5.87084 100.298 4.64444C100.677 4.63818 101.227 4.88638 101.954 4.55683C101.954 4.55683 102.179 5.23678 102.402 6.35056C101.86 6.80316 101.298 7.24325 100.923 7.50188ZM95.9557 21.2885C94.7685 20.692 95.5079 21.1926 95.8515 20.9339C97.7322 21.8016 98.6798 21.6014 100.088 21.4304C100.29 21.689 100.567 21.9309 100.567 22.2751C98.8444 22.7652 97.5052 22.1291 95.9536 21.2906L95.9557 21.2885ZM102.731 30.57C102.62 29.6565 102.568 29.0099 102.148 28.574C101.814 27.6646 100.848 25.1367 100.161 22.8591C100.577 22.4461 100.9 22.6609 101.177 23.7935C101.441 24.707 101.76 25.4621 102.002 26.2254C102.322 26.993 102.564 28.015 102.81 28.5531C102.81 28.5531 103.026 28.5906 103.147 28.8806C103.751 30.57 103.91 30.8411 103.807 31.6462C103.953 32.2782 104.84 31.763 104.759 32.5431H102.876L103.705 32.5368C103.135 31.932 103.539 31.0309 102.731 30.57ZM66.0085 32.0822C65.4878 32.4722 64.863 32.7204 64.182 32.7996C64.1153 32.7788 64.057 32.6432 64.0528 32.5598L63.9445 30.2092C63.9404 30.1841 63.982 30.157 64.007 30.1466C64.0653 30.1257 64.2257 30.0632 64.2903 30.0256C64.3153 30.011 64.3798 30.0048 64.4007 30.0256L65.9419 31.8152C65.996 31.8819 66.046 32.0279 66.0043 32.0863L66.0085 32.0822ZM63.6259 32.833C63.0011 32.8122 62.4179 32.6349 61.9035 32.3491C61.8618 32.2907 61.8764 32.1364 61.9243 32.0676L63.2114 30.1028C63.2239 30.0819 63.2739 30.0819 63.3031 30.0903C63.3572 30.107 63.4843 30.1424 63.5572 30.1529C63.5863 30.1529 63.6405 30.1946 63.6405 30.2217L63.755 32.5786C63.7592 32.662 63.6925 32.808 63.6238 32.8288L63.6259 32.833ZM60.3769 27.9378C60.2936 27.9128 60.1686 27.8002 60.1728 27.7292C60.2915 27.4039 60.4435 27.0973 60.6414 26.8199C60.9538 26.7302 61.2766 26.6447 61.5994 26.5612L62.6408 27.8752L62.5929 27.8815C61.9181 27.9649 61.287 28.0066 60.6893 28.015L60.3769 27.9316V27.9378ZM63.3072 25.2472C63.3697 25.2723 63.4322 25.4057 63.4322 25.4871L63.4426 25.6706C62.8178 25.7916 62.2055 25.9272 61.6182 26.0773C61.5807 26.0002 61.5619 25.9105 61.5932 25.8688C62.093 25.5288 62.6762 25.3202 63.301 25.2493L63.3072 25.2472ZM62.9782 27.8127L61.9202 26.4861C62.4325 26.361 62.949 26.2463 63.4655 26.1441L63.5363 27.698C63.3281 27.748 63.1552 27.7814 62.9782 27.8127ZM62.8782 28.2298C62.874 28.2444 62.8782 28.259 62.8699 28.2715C62.8199 28.3428 62.7746 28.4174 62.7345 28.4947C62.722 28.5218 62.672 28.5614 62.6408 28.5573L61.8806 28.3487C62.2055 28.3153 62.5366 28.2861 62.8803 28.2277L62.8782 28.2298ZM64.2799 27.9462C64.2674 27.967 64.2174 27.967 64.1882 27.9566H64.1778L64.2882 27.9316L64.2819 27.9441L64.2799 27.9462ZM63.8362 27.6229L63.7633 26.0857C64.4007 25.9647 65.0275 25.8646 65.6253 25.7937C65.6182 25.8576 65.5999 25.9197 65.5711 25.9772L64.6277 27.4122C64.3486 27.4956 64.0903 27.5603 63.8362 27.6229ZM65.8211 26.142C65.8627 26.0732 65.996 25.996 66.0668 26.0106C66.3376 26.2233 66.5875 26.4695 66.7958 26.7469C66.2334 26.9346 65.6503 27.114 65.0713 27.2892L65.8211 26.142ZM63.7384 25.6143L63.7342 25.4683C63.73 25.3807 63.7967 25.2264 63.8633 25.2118C64.259 25.2222 64.6339 25.2994 64.988 25.4203C64.5714 25.4746 64.1591 25.5371 63.7384 25.6122V25.6143ZM63.6863 25.2076C63.7071 25.2076 63.7238 25.2013 63.7425 25.2013L63.7925 25.2055H63.6842L63.6863 25.2076ZM58.2338 27.8022C58.0297 27.7397 58.0776 27.6771 58.2005 27.625C58.6107 27.4623 59.071 27.3017 59.5542 27.1452C59.4355 27.4122 59.3459 27.6917 59.2751 27.9795C58.9234 27.9527 58.5749 27.892 58.2338 27.8022ZM59.9937 28.3967C60.3019 28.4134 60.6185 28.4092 60.9371 28.4029L62.5533 28.8472C62.5741 28.8534 62.5908 28.9014 62.5908 28.9306C62.5908 28.9932 62.6012 29.16 62.6199 29.2331C62.6199 29.2623 62.5991 29.2852 62.5741 29.2956L60.4185 30.2488C60.3394 30.2801 60.1832 30.278 60.1353 30.2238C60.0009 29.8387 59.9292 29.4344 59.9228 29.0266C59.9228 28.8096 59.952 28.6032 59.9853 28.4008L59.9937 28.3967ZM60.2332 30.5179L60.2269 30.5033C60.2269 30.5095 60.2311 30.5137 60.2332 30.5179ZM60.3498 30.7348C60.3498 30.6639 60.4643 30.5554 60.5372 30.522L62.7032 29.6168C62.7241 29.6043 62.7657 29.6377 62.7824 29.6585C62.8199 29.7044 62.8761 29.7733 62.9282 29.8254C62.9532 29.8463 62.974 29.9088 62.9615 29.9297L61.6702 31.9028C61.6244 31.9737 61.4828 32.0488 61.4161 32.0279C60.97 31.6818 60.6071 31.2399 60.354 30.7348H60.3498ZM61.6348 32.201C61.614 32.1864 61.5994 32.1739 61.5807 32.1635L61.6369 32.199L61.6348 32.201ZM66.4459 31.7192C66.3834 31.7568 66.2272 31.6775 66.1689 31.6149L64.6339 29.8275C64.6131 29.8108 64.6297 29.7649 64.6464 29.7378C64.6876 29.6764 64.7244 29.6123 64.7568 29.5459C64.7714 29.5188 64.8193 29.4792 64.8505 29.4833L67.1207 30.1132C67.1915 30.1341 67.3081 30.2113 67.3331 30.2801C67.1394 30.8224 66.8437 31.3188 66.4459 31.7192ZM67.483 29.7587C67.4456 29.8212 67.2748 29.8421 67.1915 29.8212L64.9317 29.1955C64.9047 29.1893 64.8901 29.1413 64.8901 29.1121C64.8903 29.0249 64.8847 28.9378 64.8734 28.8514C64.8672 28.8222 64.8838 28.7596 64.9088 28.7471L67.104 27.9128C67.1811 27.8836 67.3331 27.8982 67.3852 27.9503C67.4831 28.2924 67.5518 28.6449 67.5518 29.0203C67.5518 29.2706 67.5247 29.5209 67.4789 29.7607L67.483 29.7587ZM67.1915 27.4122C67.1915 27.4852 67.0769 27.5999 66.9999 27.6312L67.1457 27.5812L64.8068 28.4613C64.7818 28.4718 64.7443 28.4405 64.7276 28.4196C64.676 28.3491 64.6203 28.2815 64.561 28.2173C64.5339 28.1964 64.5152 28.138 64.5256 28.113L64.7276 27.8064C65.4399 27.6187 66.2064 27.3768 67.0186 27.0973C67.0811 27.2016 67.1436 27.3058 67.1936 27.4143L67.1915 27.4122ZM73.2938 24.0542C72.2774 24.7884 72.7564 25.6539 72.1275 25.8271C71.8984 25.7937 70.6196 26.0273 70.4197 26.1191C69.9885 25.7165 69.5491 25.3765 68.8868 25.2013C70.1468 24.6841 72.1441 24.171 73.2938 24.0542ZM69.1596 25.8792C68.9409 25.9835 68.3578 26.2087 67.5726 26.4841C67.3771 26.1899 67.1478 25.9197 66.8895 25.679C67.8725 25.6268 68.6744 25.679 69.1596 25.8792ZM80.1313 12.9936C78.5943 14.5412 78.7921 16.8522 78.9712 18.6709C78.6172 18.9296 78.1798 19.1465 77.8966 19.305C77.7299 17.0733 77.9674 13.7445 80.1313 12.9936ZM41.6638 13.7778C41.4055 13.4316 41.0265 12.9018 41.3202 12.541C41.5368 12.274 41.9783 12.4826 42.2365 12.5994C42.4552 12.7141 44.1776 13.6423 44.6462 13.7716C48.1243 14.6392 52.5188 13.3607 55.2763 15.8636C55.4117 15.9887 55.5096 16.1076 55.4804 16.2807C51.4338 13.5192 45.3398 17.603 41.6638 13.7778ZM44.9378 18.2371C45.2252 18.4102 45.3398 18.8691 45.6563 19.1277C46.1729 19.9912 47.1496 20.279 47.6661 21.0257C47.4917 21.0394 47.3162 21.0268 47.1455 20.9882C46.8081 20.9214 46.6748 20.8213 46.3915 20.6962C46.2416 20.4521 45.8646 20.3708 45.5689 20.5293C45.3335 20.571 44.6816 20.5397 44.2484 20.425C44.3317 19.7326 44.9982 19.0693 44.9357 18.235L44.9378 18.2371ZM40.889 25.6831L41.9471 26.8616C41.1806 26.8553 40.4413 26.8199 39.7394 26.7719C39.6852 26.6968 39.6561 26.6259 39.6707 26.5842C39.806 26.3005 39.9706 26.0377 40.1601 25.7916C40.3954 25.7499 40.6433 25.7186 40.889 25.6873V25.6831ZM47.1621 25.9751C47.2913 26.1629 47.3954 26.3631 47.4954 26.5696C46.9747 26.6467 46.4207 26.7052 45.8375 26.751L46.6644 26.0419C46.8726 25.875 47.1101 25.9105 47.1621 25.9751ZM46.4332 25.7916L45.2585 26.7928C44.9586 26.8136 44.6546 26.822 44.3484 26.8345L44.8274 25.4704C45.4231 25.4913 46.0021 25.533 46.5415 25.5872C46.5165 25.6602 46.4957 25.7332 46.4374 25.7916H46.4332ZM46.1458 31.9341C45.7292 32.2386 45.2585 32.4638 44.7504 32.6078C44.6587 32.5952 44.4838 32.4534 44.4338 32.2448L43.9756 29.7566C43.9673 29.7253 43.9798 29.6857 44.011 29.6731C44.0988 29.6446 44.1827 29.6054 44.2609 29.5563C44.288 29.5355 44.3234 29.5501 44.3442 29.573L46.0416 31.4418C46.2083 31.6379 46.202 31.8631 46.1458 31.932V31.9341ZM42.551 27.5332C42.5719 27.554 42.5802 27.5999 42.5614 27.625C42.5094 27.6875 42.4906 27.7084 42.449 27.7856C42.4344 27.8148 42.399 27.8189 42.3657 27.8064L40.4746 27.1306C41.0577 27.164 41.6451 27.1786 42.2303 27.1786L42.551 27.5332ZM44.4255 27.4393C44.3685 27.3869 44.3056 27.3414 44.238 27.3038C44.2047 27.2871 44.1964 27.262 44.2089 27.2266L44.2443 27.1306L44.9024 27.0973L44.5067 27.431C44.4859 27.4518 44.4505 27.4602 44.4255 27.4393ZM43.9777 26.8449C43.8111 26.8491 43.6528 26.8595 43.4903 26.8616H43.482L43.2217 25.4641C43.305 25.46 43.3779 25.4495 43.4591 25.4433C43.8027 25.4433 44.1381 25.4558 44.4755 25.4641L43.9756 26.847L43.9777 26.8449ZM42.878 25.485L43.1321 26.8616C42.8926 26.8658 42.6531 26.8658 42.4094 26.8616L41.2848 25.631C41.8013 25.5684 42.3303 25.5205 42.878 25.485ZM43.1592 27.1744C43.1529 27.1828 43.1592 27.1995 43.1467 27.2036C43.0593 27.2349 42.9755 27.2755 42.8968 27.3246C42.8676 27.3455 42.8343 27.3309 42.8135 27.3079L42.6968 27.1786C42.8509 27.1744 43.0092 27.1786 43.1613 27.1724L43.1592 27.1744ZM39.5769 26.7573C39.5832 26.7406 39.5978 26.7218 39.604 26.701C39.5967 26.7212 39.5876 26.7407 39.5769 26.7594V26.7573ZM39.3832 27.3872C39.4311 27.31 39.654 27.2141 39.8664 27.2829L42.247 28.1339C42.274 28.1422 42.299 28.1756 42.2928 28.2069C42.2792 28.284 42.2722 28.3622 42.272 28.4405C42.272 28.4738 42.2449 28.4926 42.2157 28.503L39.729 28.9661C39.4832 29.0015 39.3124 28.8826 39.277 28.7992C39.2666 28.6741 39.2416 28.5573 39.2416 28.4321C39.2416 28.0713 39.2958 27.7251 39.3832 27.3872ZM39.4249 29.6273C39.4332 29.5334 39.5769 29.3457 39.7915 29.2977L42.2699 28.843C42.2853 28.8396 42.3015 28.8419 42.3153 28.8496C42.3291 28.8573 42.3396 28.8698 42.3448 28.8847C42.3698 28.9556 42.3782 28.989 42.424 29.0641C42.4386 29.0933 42.4302 29.1225 42.4032 29.1475L40.4308 30.7369C40.2184 30.8975 39.9935 30.862 39.9414 30.7994C39.7148 30.4351 39.5409 30.0405 39.4249 29.6273ZM40.0185 30.9121C39.9976 30.8849 39.9768 30.8599 39.9602 30.8286C39.9726 30.8537 39.9997 30.8849 40.0185 30.9121ZM40.4829 31.4794C40.4371 31.4085 40.4704 31.1457 40.6454 30.9997L42.6156 29.4249C42.6364 29.3957 42.6718 29.3895 42.6989 29.4145C42.7551 29.4667 42.8447 29.5334 42.9197 29.5751C42.9509 29.5918 42.9613 29.6168 42.9447 29.6544L42.0908 32.0363C41.9991 32.2761 41.8075 32.37 41.7221 32.3533C41.2626 32.1346 40.8441 31.8383 40.485 31.4773L40.4829 31.4794ZM41.9262 32.4555C41.8997 32.4465 41.8739 32.4354 41.8492 32.4221L41.9262 32.4555ZM42.5219 32.6432C42.4427 32.5952 42.3344 32.3804 42.4011 32.1677L43.2633 29.7774C43.2716 29.7461 43.3008 29.7253 43.332 29.7315C43.4091 29.7461 43.4778 29.7524 43.5674 29.7524C43.6028 29.7524 43.6236 29.7816 43.6299 29.815L44.0943 32.3074C44.1318 32.5473 44.0214 32.7037 43.9381 32.7538C43.8215 32.7621 43.7048 32.7892 43.5841 32.7892C43.2154 32.7892 42.8655 32.7329 42.526 32.6432H42.5219ZM46.6248 31.5378C46.6456 31.5169 46.6665 31.4961 46.6789 31.4752C46.6581 31.4961 46.6435 31.5169 46.6248 31.5378ZM46.7768 31.3605C46.6998 31.4085 46.454 31.3918 46.2978 31.2312L44.6129 29.3457C44.5921 29.3248 44.5838 29.2831 44.6067 29.256C44.6494 29.2065 44.6857 29.1518 44.715 29.0933C44.7295 29.062 44.7649 29.0558 44.7941 29.0725L47.21 29.9318C47.46 30.0298 47.5224 30.2279 47.5016 30.3072C47.3142 30.6902 47.0737 31.0448 46.7872 31.3605H46.7768ZM47.5058 30.2717C47.5412 30.2092 47.5808 30.1091 47.6203 30.0089C47.5852 30.0971 47.547 30.1841 47.5058 30.2697V30.2717ZM47.7828 29.4854C47.7495 29.5647 47.5329 29.6815 47.31 29.6106L44.9066 28.7471C44.8795 28.7387 44.8545 28.7054 44.8587 28.6741C44.8712 28.5948 44.8795 28.5573 44.8795 28.4718C44.8795 28.4384 44.9087 28.4196 44.9378 28.4092L47.4725 28.0129C47.7224 27.9816 47.8807 28.1005 47.9057 28.186C47.9098 28.2694 47.9265 28.3529 47.9265 28.4363C47.9265 28.7971 47.8723 29.1455 47.7869 29.4833L47.7828 29.4854ZM47.7724 27.3538C47.7724 27.4539 47.6266 27.6333 47.41 27.675L44.8899 28.0713C44.8745 28.0739 44.8587 28.0712 44.8451 28.0636C44.8315 28.056 44.8209 28.044 44.8149 28.0296C44.7888 27.9428 44.7539 27.859 44.7108 27.7793C44.69 27.7522 44.6983 27.723 44.7212 27.6959L45.471 27.0535C46.1874 26.9992 46.8976 26.9179 47.6016 26.8136C47.6703 26.9909 47.7203 27.1682 47.7682 27.3559L47.7724 27.3538ZM49.0699 26.0481C49.2323 26.1003 49.2886 26.2087 49.0824 26.2651C48.8658 26.3235 48.6034 26.3693 48.3534 26.4215C48.2597 26.2004 48.1348 25.9981 48.014 25.7958C48.4055 25.8709 48.7637 25.9522 49.0678 26.0461L49.0699 26.0481ZM44.9524 25.1242L45.0565 24.8259C45.1482 24.5881 45.3481 24.5068 45.4397 24.5214C45.8438 24.7154 46.2166 24.9677 46.5436 25.2723C46.0145 25.2036 45.483 25.1549 44.9503 25.1263L44.9524 25.1242ZM44.6233 24.2273C44.7004 24.2836 44.8024 24.5089 44.7379 24.7175L44.5962 25.1137C44.2109 25.0971 43.8298 25.0762 43.4445 25.0804C43.3445 25.0804 43.2508 25.1012 43.1488 25.1012L43.0509 24.5673C43.0134 24.3212 43.1279 24.1627 43.2133 24.123C43.3383 24.1126 43.4549 24.0855 43.5778 24.0855C43.9402 24.0855 44.2859 24.1439 44.6233 24.2273ZM42.3948 24.269C42.4886 24.2795 42.6698 24.4234 42.7177 24.6361L42.7801 24.9761C42.5665 24.779 42.3701 24.5641 42.1928 24.3337L42.3969 24.2711L42.3948 24.269ZM42.249 25.1721C41.845 25.2097 41.443 25.2556 41.0452 25.3181C40.9619 25.1555 40.9578 25.0053 41.0036 24.9511C41.2014 24.8051 41.416 24.6757 41.6409 24.5631C41.82 24.7675 42.0241 24.9719 42.249 25.1721ZM37.8712 26.3443C38.1961 26.2275 38.5918 26.1191 39.0292 26.0148C38.9138 26.2288 38.8129 26.4504 38.7272 26.678C38.4294 26.6426 38.1232 26.6092 37.8733 26.5612C37.6609 26.5237 37.7108 26.4027 37.8712 26.3443ZM114.317 13.9906C114.229 14.0636 114.2 14.1637 114.271 14.1783C114.404 14.2033 114.479 14.2492 114.633 14.391C114.717 14.4327 114.696 14.3034 114.675 14.2325C114.592 14.0323 114.417 13.9113 114.321 13.9906H114.317Z" fill="black"/>
<path d="M111.192 32.5579H107.097C107.045 32.8353 107.368 33.0376 107.556 33.2524H112.027L113.277 32.6434C113.498 32.1011 113.052 31.6214 113.068 31.1834C113.143 29.8777 112.417 28.5762 112.033 27.3811C112.283 27.1162 112.596 26.5051 113.006 26.6678C113.964 28.1612 114.141 30.0675 113.979 31.9655C113.881 32.4348 113.083 32.8624 113.108 33.3046C113.123 33.4589 114.17 33.3922 114.603 33.023C114.68 32.7185 115.243 32.343 115.424 32.2992C115.624 31.7257 115.312 31.7444 115.362 31.3982C115.462 31.1583 115.328 28.572 115.149 28.2946C115.082 28.2529 115.06 28.2529 115.055 28.2592C114.855 27.7461 115.343 26.9598 115.539 26.4738L116.967 26.3445C116.797 25.0722 116.342 23.7498 116.055 22.4442C116.23 22.1397 116.547 21.9019 116.836 21.7288C118.342 20.7339 117.015 19.13 116.965 17.891C116.709 17.2486 115.826 16.7481 115.745 16.0389C115.928 16.1807 116.068 16.1223 116.107 16.1328C116.538 15.8366 116.517 15.409 116.303 14.873C116.957 14.0929 117.357 13.7342 117.478 13.486C117.436 12.8332 116.388 11.8591 115.774 11.8591C115.412 12.0594 115.17 12.464 114.503 12.9812C114.483 13.0084 113.704 12.7101 113.468 12.9604C113.239 13.1481 113.318 13.753 113.739 14.0804C113.687 14.241 113.639 14.3036 113.552 14.4976C113.506 14.5935 113.485 14.6957 113.545 14.752C113.683 14.8772 113.733 15.0711 113.635 15.3694C113.531 15.6864 113.885 15.92 114.01 15.9659C114.031 15.9722 114.072 16.016 114.114 16.0702C114.16 16.4206 112.973 17.0505 112.973 17.3216C112.879 18.1413 112.369 18.06 111.873 20.7527C111.935 21.4055 111.927 21.9832 111.881 22.4984C111.273 24.1086 110.778 25.0367 110.365 26.2006C110.024 27.16 111.94 29.9382 111.969 31.832C111.552 32.4577 111.219 32.3681 111.192 32.5558V32.5579ZM114.301 29.6733C114.204 29.4168 114.122 29.0538 114.172 28.7848C114.339 28.6242 114.651 28.7431 114.81 28.718C115.003 29.6149 115.051 29.74 114.304 29.6775L114.301 29.6733ZM114.316 16.4143C114.37 16.3726 114.42 16.2391 114.451 16.1912C115.082 15.7865 114.647 16.0785 114.02 15.7469C113.816 15.6426 113.812 15.4466 113.837 15.1692C113.874 14.825 113.733 14.7583 113.679 14.6477C113.658 14.6019 113.756 14.4329 113.837 14.314C113.983 14.0929 114.114 13.6341 114.183 13.5214C115.228 13.5632 114.995 14.0262 115.022 14.1096C115.105 14.3349 115.543 14.8188 115.757 14.971C115.695 15.6051 115.199 15.2317 115.42 15.8095C115.362 16.9066 114.06 16.7689 113.504 17.67C113.448 16.7773 114.233 16.7793 114.316 16.4123V16.4143ZM113.129 21.1364C113.412 21.393 113.712 21.7163 113.929 21.7705C114.079 22.1459 113.616 22.1981 113.45 22.3754C113.06 22.4338 112.914 22.0208 112.687 22.2085C112.635 22.2502 112.402 22.2022 112.406 22.1564C112.531 21.8226 112.879 21.3429 113.127 21.1343L113.129 21.1364ZM110.661 26.7262C110.515 25.967 111.523 24.7865 112.194 22.4713C112.469 22.3754 112.614 23.0073 113.006 22.7633C113.61 22.7779 113.352 24.3526 113.914 23.3515C113.902 22.9093 113.889 22.4129 114.239 22.1772C114.618 22.0896 114.864 22.3024 114.889 22.6361L114.306 23.5454C115.409 23.5872 113.952 25.3642 115.409 25.0388C115.362 25.7063 115.003 27.5772 114.747 27.4833C114.547 26.4467 114.385 26.8784 114.385 27.1829C114.426 27.5855 114.418 27.913 114.656 28.2383C114.576 28.3218 114.281 28.3134 114.197 28.3322C113.373 27.1537 113.406 25.5373 112.875 24.2567C112.785 24.2525 112.673 24.361 112.677 24.4548C112.614 25.2265 112.315 26.3403 111.681 26.7074C111.286 26.941 112.552 26.7992 111.515 27.2872C111.911 27.55 111.546 27.9067 111.111 27.9067C110.894 27.4437 110.728 27.0599 110.663 26.7241L110.661 26.7262ZM111.754 29.2833C111.604 29.1081 111.373 28.6012 111.279 28.3822L111.883 28.132C112.071 28.3405 112.258 28.7285 112.285 29.0705C112.15 29.1435 111.963 29.2687 111.754 29.2833ZM92.3123 16.8524C92.2227 15.6218 92.7288 14.5789 92.1561 13.2649C92.1623 12.7226 92.5414 12.3055 92.4393 11.8049L91.5084 12.0302C91.3667 13.0647 91.196 13.4067 91.3355 14.3808C91.5813 15.4966 91.7062 16.5124 92.3102 16.8544L92.3123 16.8524ZM82.6944 20.2938C86.2558 19.2926 88.7134 18.4375 91.6646 17.1965C90.4358 14.5685 90.7065 13.8093 90.8107 12.1282C90.8107 12.1282 89.3111 12.149 87.5679 11.686C85.5019 13.0209 83.0901 17.7993 82.6944 20.2938ZM94.9157 21.0551C94.7241 20.8674 95.0073 21.1677 94.9157 21.0551V21.0551ZM99.1956 13.0876C97.6961 12.0531 96.5339 9.64617 94.899 9.80886C94.7407 8.03599 93.968 5.02629 96.4131 1.85181C96.7297 1.70581 97.2462 1.6495 97.4461 1.41798C96.4464 1.3137 95.1302 1.93316 94.1763 1.39087C94.1763 1.39087 94.6178 2.16259 95.1302 2.27939C94.7928 2.73825 94.1388 3.06571 94.5366 3.86454C93.7202 4.35051 94.0284 5.07843 94.2804 5.47055C93.8722 5.89186 93.6244 6.64898 94.1659 7.10993C93.4994 7.82533 94.3263 8.43228 94.52 8.67422C94.1826 9.38963 94.5075 9.94234 94.5075 9.94234C94.495 10.4575 93.5786 11.1938 93.2474 11.4316C92.8517 12.6413 93.0037 15.0753 93.0641 16.6876C95.2926 15.6197 97.4795 14.6039 99.1956 13.0876ZM73.5784 55.8492C73.5784 54.5769 72.7307 53.0751 71.5665 52.3702C71.2819 52.1972 70.961 52.093 70.6293 52.0657C70.9125 52.0823 71.2957 52.0615 71.6561 51.9113C71.668 51.9065 71.6807 51.9037 71.6935 51.903C72.8724 51.3774 74.3011 49.8485 74.3011 47.2727C74.3011 45.3684 73.4826 43.8312 72.0934 42.8196C70.7938 41.8769 69.2526 41.6641 67.7135 41.6641H55.5922V44.751H58.3205V60.3001H55.5922V63.3745H64.2V60.298H61.507V53.4485H67.4573C69.5088 53.4735 70.3023 54.8251 70.344 55.9868L70.4939 63.3703H76.4421V60.3001H73.6617L73.5784 55.8492ZM68.1009 50.468H61.5091V44.7531H67.7468C68.3925 44.7531 69.1964 44.7322 69.8233 45.0514C70.5897 45.4414 71.3082 46.2819 71.3082 47.6543C71.3082 49.2395 69.8587 50.468 68.1009 50.468ZM54.5154 71.0082H50.4062V83.412H52.239V78.0434H54.2717C57.2292 78.0434 58.5725 76.5208 58.5725 74.5727C58.5725 72.608 57.3021 71.0082 54.5154 71.0082ZM54.4404 76.4457H52.2432V72.608H54.5175C56.1837 72.608 56.6835 73.5882 56.6835 74.4935C56.6835 75.7345 55.8067 76.4457 54.4404 76.4457ZM65.6974 70.9352L60.2158 83.4078H62.1943L63.6939 79.7516H69.1193L70.6709 83.4078H72.6912L66.9846 70.9352H65.6933H65.6974ZM64.4062 78.1518L66.3139 73.2504L68.3696 78.1518H64.4062ZM91.4646 71.0082H93.2974V83.412H91.4646V71.0082ZM100.918 73.9178C100.918 73.0418 101.809 72.4432 103.051 72.4432C103.967 72.4432 105.077 72.7352 106.221 73.7363V71.7132C105.317 71.1506 104.275 70.8495 103.211 70.8434C100.737 70.8434 99.1144 72.1303 99.1144 74.1514C99.1144 77.5511 104.952 77.8431 104.952 80.4086C104.952 81.0969 104.261 81.9687 102.755 81.9687C101.426 81.9687 100.185 81.3305 99.1935 80.175V82.4276C100.322 83.2097 101.505 83.5747 102.972 83.5747C105.148 83.5747 106.75 82.1522 106.75 80.2104C106.758 76.2622 100.918 76.3018 100.918 73.9178ZM84.9853 80.955C83.9919 79.4116 83.2692 78.2645 82.0904 77.5178C83.4795 76.9922 84.2606 75.9159 84.2606 74.483C84.2606 72.3389 82.6194 71.0103 79.991 71.0103H76.7087V83.4141H78.5769V78.0267H79.36C80.3138 78.0267 81.0949 78.3187 82.811 80.8633L84.4501 83.412H86.6432L85.6789 81.9687C85.4376 81.6378 85.2063 81.2998 84.9853 80.955ZM79.7786 76.429H78.581V72.535H79.7807C81.5926 72.535 82.3174 73.2441 82.3382 74.4079C82.3528 75.4508 81.7842 76.4269 79.7807 76.4269L79.7786 76.429Z" fill="black"/>
</svg>
