<svg width="24" height="24" viewBox="0 0 24 24" fill="none" xmlns="http://www.w3.org/2000/svg">
<path fill-rule="evenodd" clip-rule="evenodd" d="M12 9.01153C13.6765 9.01153 15.0356 10.3496 15.0356 12.0001C15.0356 13.6504 13.6765 14.9884 12 14.9884C10.3235 14.9884 8.96442 13.6504 8.96442 12.0001C8.96442 10.3496 10.3235 9.01153 12 9.01153ZM12 7.81648C9.6529 7.81648 7.75019 9.6895 7.75019 12.0001C7.75019 14.3105 9.6529 16.1838 12 16.1838C14.3471 16.1838 16.2498 14.3105 16.2498 12.0001C16.2498 9.6895 14.3471 7.81648 12 7.81648ZM16.381 6.81078C16.1454 6.81447 15.9161 6.88772 15.722 7.02131C15.5279 7.15491 15.3775 7.3429 15.2899 7.56166C15.2023 7.78042 15.1813 8.0202 15.2295 8.25086C15.2778 8.48153 15.3931 8.6928 15.561 8.85812C15.729 9.02344 15.942 9.13545 16.1734 9.18007C16.4048 9.22468 16.6442 9.19992 16.8616 9.10888C17.0789 9.01785 17.2645 8.86461 17.3951 8.66842C17.5256 8.47222 17.5953 8.24182 17.5953 8.00616C17.5927 7.68664 17.4634 7.3812 17.2357 7.15703C17.008 6.93286 16.7005 6.80831 16.381 6.81078ZM9.03354 5.5098H14.9665C16.8966 5.5098 18.4612 7.05012 18.4612 8.94995V15.05C18.4612 16.9502 16.8966 18.4902 14.9665 18.4902H9.03354C7.10344 18.4902 5.53877 16.9502 5.53877 15.05V8.94995C5.53877 7.05012 7.10341 5.5098 9.03354 5.5098ZM8.47398 4.32005C6.1798 4.32005 4.31999 6.15104 4.31999 8.40937V15.5906C4.31999 17.8493 6.17978 19.6799 8.47398 19.6799H15.526C17.8202 19.6799 19.68 17.8493 19.68 15.5906V8.40937C19.68 6.15102 17.8202 4.32005 15.526 4.32005H8.47398ZM12 0C18.6274 0 24 5.3724 24 12.0001C24 18.6275 18.6274 24 12 24C5.37257 24 0 18.6275 0 12.0001C0 5.37242 5.37257 0 12 0Z" fill="#343434" fill-opacity="0.5"/>
</svg>
