<svg width="270" height="43" viewBox="0 0 270 43" fill="none" xmlns="http://www.w3.org/2000/svg">
<path d="M4.00104 30.7125V12.2875C4.00104 5.77659 3.3822 3.50021 0 0H15.9919C12.6097 3.50021 11.9909 5.77659 11.9909 12.2875V30.7125C11.9909 37.2234 12.6097 39.4998 15.9919 43H0C3.3822 39.4998 4.00104 37.2234 4.00104 30.7125ZM22.1436 31.6977C27.9277 28.8706 32.6578 23.4673 32.6578 15.8489C32.6578 8.2304 27.9215 2.88829 22.1436 0C30.8136 0 41.8854 4.36303 41.8854 15.8489C41.8854 27.3347 30.8136 31.6977 22.1436 31.6977Z" fill="#343434"/>
<path d="M54.2683 43H35.8193C41.3583 41.1581 43.2026 39.3162 45.0469 33.7905C46.8911 39.3162 48.7354 41.1581 54.2683 43ZM67.8583 33.7905C66.0141 30.4127 61.1552 28.3811 54.5746 27.7692C58.8208 27.1511 63.6735 26.5392 60.8488 21.2583L59.3722 18.6759C54.207 9.27676 56.7253 3.87347 58.8207 0.00610352L77.8211 33.7905C81.2033 39.3162 83.5439 41.7761 88.2802 43H62.448C68.1095 41.77 70.8729 39.3774 67.8583 33.7905Z" fill="#343434"/>
<path d="M103.01 12.2875V30.7125C103.01 37.2234 103.629 39.4998 107.011 43H91.0195C94.4017 39.4998 95.0206 37.2234 95.0206 30.7125V12.2875C95.0206 5.77659 94.4017 3.50021 91.0195 0H107.011C103.629 3.50021 103.01 5.77659 103.01 12.2875ZM136.716 43C113.408 43 116.3 30.9022 110.087 26.172C118.941 23.345 123.065 19.4776 123.065 13.0891C123.065 6.70059 118.947 2.89441 113.163 0.00612523C123.065 0.00612523 132.292 2.83322 132.292 13.0891C132.292 21.3807 125.895 24.7585 115.314 26.172C121.404 26.784 124.296 29.2439 126.876 33.7905C130.074 39.4386 131.98 41.7761 136.716 43Z" fill="#343434"/>
<path d="M143.07 30.7125V12.2875C143.07 5.77659 142.457 3.50021 139.075 0H155.067C151.685 3.50021 151.066 5.77659 151.066 12.2875V30.7125C151.066 37.2234 151.685 39.4998 155.067 43H139.075C142.457 39.4998 143.07 37.2234 143.07 30.7125ZM165.52 19.2879V28.4974C162.138 25.8539 159.613 24.6912 154.448 23.8896C159.613 23.0941 162.199 21.9253 165.52 19.2818V19.2879ZM170.379 9.2156C168.535 3.68379 166.69 1.8419 161.158 0H170.379V9.2156Z" fill="#343434"/>
<path d="M194.508 0C187.498 3.87349 183.381 11.1799 183.381 21.4969C183.381 31.814 187.498 39.1265 194.508 42.9939C183.381 42.9939 173.534 36.2382 173.534 21.4969C173.534 6.75566 183.374 0 194.508 0ZM200.659 42.9939C207.669 39.1265 211.786 31.814 211.786 21.4969C211.786 11.1799 207.669 3.86737 200.659 0C211.786 0 221.633 6.75566 221.633 21.4969C221.633 36.2382 211.792 42.9939 200.659 42.9939Z" fill="#343434"/>
<path d="M235.988 43H217.539C223.078 41.1581 224.922 39.3162 226.767 33.7905C228.611 39.3162 230.455 41.1581 235.988 43ZM249.578 33.7905C247.734 30.4127 242.875 28.3811 236.294 27.7692C240.54 27.1511 245.393 26.5392 242.569 21.2583L241.092 18.6759C235.927 9.27676 238.445 3.87347 240.54 0.00610352L259.547 33.7905C262.929 39.3162 265.264 41.7761 270 43H244.168C249.829 41.77 252.593 39.3774 249.578 33.7905Z" fill="#343434"/>
</svg>
