<svg width="229" height="36" viewBox="0 0 229 36" fill="none" xmlns="http://www.w3.org/2000/svg">
<path fill-rule="evenodd" clip-rule="evenodd" d="M4.15658 35.9974H0.939465C0.671047 35.9974 0 35.9974 0 35.5895C0 35.3188 0.13421 35.1815 0.536838 35.0456C3.48683 34.0938 4.15658 32.4648 4.15658 30.1573V5.84269C4.15658 3.66852 3.48553 2.03821 0.536838 0.951781C0.13421 0.951781 0 0.679846 0 0.543878C0 0.00132346 0.671047 0.135974 0.939465 0.135974H27.4855C33.5184 0.135974 38.4803 5.02556 38.4803 11.1375C38.4803 17.2509 33.5184 22.1391 27.4855 22.1391H14.0776V30.4253C14.2131 32.5981 14.8829 34.0912 17.6987 35.0429C18.1013 35.1802 18.2342 35.3162 18.2342 35.5868C18.2342 35.9947 17.5645 35.9947 17.296 35.9947H4.15658V35.9974ZM202.051 22.8216H208.353L202.051 11.9547L201.379 10.8669L195.75 22.8216H202.051ZM202.051 0.00264879H206.342L224.307 32.0609C224.843 32.8727 225.513 33.6898 226.32 34.0951C226.989 34.639 227.793 34.7763 228.463 35.0469C228.733 35.1842 229 35.3202 229 35.5908C229 35.9987 228.33 35.9987 228.061 35.9987H212.107C211.839 35.9987 211.033 35.9987 211.033 35.5908C211.033 35.3202 211.303 35.1829 211.572 35.0469C212.376 34.7763 212.911 34.3684 213.178 33.5539C213.447 32.6021 213.178 32.0609 212.508 30.8358C211.597 28.8756 210.659 26.9288 209.693 24.9958H194.676L194.543 25.2664C194.408 25.8103 193.337 27.7112 192.53 29.7494C191.459 31.9223 191.057 32.4648 191.324 33.5526C191.459 34.3671 192.128 34.775 192.932 35.0456C193.201 35.1829 193.337 35.3188 193.337 35.5895C193.337 35.9974 192.664 35.9974 192.397 35.9974H185.022C184.755 35.9974 184.083 35.9974 184.083 35.5895C184.083 35.3188 184.218 35.1815 184.62 35.0456C185.292 34.775 186.093 34.6377 186.764 34.0938C187.568 33.6885 188.241 32.8714 188.775 32.0595L189.714 30.02L199.904 8.42346L198.428 5.84269C197.089 3.66852 195.747 2.31015 194.272 1.49566C193.603 1.08775 192.932 1.08775 192.262 0.815817C191.859 0.679848 191.725 0.543876 191.859 0.271939C191.859 1.69873e-06 192.126 0.135969 192.262 0H202.051V0.00264879ZM161.962 35.8601H162.499C187.17 35.8601 186.903 0.137294 162.499 0.137294H142.254C141.851 0.137294 141.183 0.00132275 141.183 0.545197C141.183 0.681166 141.45 0.9531 141.717 0.9531C144.667 1.90356 145.338 3.53386 145.471 5.57207V30.4292C145.338 32.6021 144.667 34.0951 141.717 35.0469C141.45 35.1842 141.183 35.3202 141.183 35.5908C141.183 35.9987 141.853 35.9987 142.254 35.9987H155.259V35.8614L161.962 35.8601ZM161.962 2.71806C165.718 2.71806 168.803 5.8427 168.803 9.64454V26.2169C168.803 30.02 165.718 33.1447 161.962 33.1447H155.258V2.71806H161.962ZM110.88 22.8216H117.182L110.88 11.9547L110.211 10.8669L104.58 22.8216H110.88ZM110.88 0.00264879H115.305L133.271 32.0609C133.674 32.8727 134.345 33.6898 135.149 34.0951C135.818 34.639 136.625 34.7763 137.429 35.0469C137.696 35.1842 137.963 35.3202 137.963 35.5908C137.963 35.9987 137.159 35.9987 136.892 35.9987H120.939C120.67 35.9987 120 35.9987 120 35.5908C120 35.3202 120.133 35.1829 120.534 35.0469C121.207 34.7763 121.875 34.3684 122.011 33.5539C122.278 32.6021 122.011 32.0609 121.474 30.8358C120.534 28.7989 119.463 26.8967 118.526 24.9958H103.505L103.372 25.2664C103.238 25.8103 102.299 27.7112 101.361 29.7494C100.422 31.9223 99.8868 32.4648 100.155 33.5526C100.424 34.3671 100.959 34.775 101.764 35.0456C102.032 35.1829 102.3 35.3188 102.3 35.5895C102.3 35.9974 101.63 35.9974 101.229 35.9974H93.9868C93.7184 35.9974 92.9132 35.9974 92.9132 35.5895C92.9132 35.3188 93.1816 35.1815 93.45 35.0456C94.2553 34.775 94.925 34.6377 95.7303 34.0938C96.4 33.6885 97.2053 32.8714 97.6066 32.0595L98.5447 30.02L108.87 8.42346L107.395 5.84269C106.054 3.66852 104.579 2.31015 103.238 1.49566C102.433 1.08775 101.897 1.08775 101.092 0.815817C100.824 0.679848 100.555 0.543876 100.691 0.271939C100.824 1.69873e-06 101.092 0.135969 101.228 0H110.88V0.00264879ZM66.6355 23.7734C69.7197 24.8585 73.4737 25.1291 76.4224 24.1813L88.0882 34.3684L89.0263 35.1829C89.1618 35.3201 89.1618 35.4535 89.1618 35.5908C89.1618 35.9987 88.4908 35.9987 88.2224 35.9987H75.8881L66.6368 28.2564L59.1276 22.1431V30.5665C59.2631 32.6034 60.0671 34.0964 62.8816 35.0482C63.15 35.1855 63.2842 35.3215 63.2842 35.5921C63.2842 36 62.6132 36 62.3447 36H46.1211C45.7197 36 45.0487 36 45.0487 35.5921C45.0487 35.3215 45.3171 35.1842 45.5842 35.0482C48.8026 33.9631 49.2053 32.3328 49.3382 29.752V6.24928C49.204 3.80448 48.8013 2.03821 45.5842 0.951781C45.3158 0.951781 45.0487 0.679846 45.0487 0.543878C45.0487 0.00132346 45.7197 0.135974 46.1211 0.135974H72.2658C73.6936 0.129862 75.1085 0.410246 76.4288 0.960946C77.7491 1.51165 78.9487 2.32176 79.9583 3.34455C80.968 4.36735 81.7678 5.58256 82.3115 6.9201C82.8553 8.25764 83.1322 9.69103 83.1263 11.1375C83.1324 12.5841 82.8555 14.0176 82.3119 15.3552C81.7682 16.6928 80.9684 17.9081 79.9587 18.9309C78.949 19.9538 77.7493 20.7639 76.429 21.3145C75.1086 21.8652 73.6936 22.1454 72.2658 22.1391H63.8197C64.2224 22.9536 65.1605 23.2269 65.9645 23.6348C66.2329 23.6361 66.3671 23.7734 66.6355 23.7734ZM66.6355 19.5623H67.7079C71.1934 19.5623 74.1434 15.7578 74.1434 10.8669C74.1434 6.11331 71.1934 2.31015 67.7079 2.31015H59.1263V19.5623H66.6355ZM21.7197 2.31148H14.0776V19.5636H22.9276C26.5474 19.5636 29.3631 15.7592 29.3631 10.8682C29.3631 6.11463 26.5474 2.31148 22.9276 2.31148H21.7197Z" fill="black"/>
</svg>
