<svg width="40" height="40" viewBox="0 0 40 40" fill="none" xmlns="http://www.w3.org/2000/svg">
<path d="M29.1381 30.0024L21.4936 22.3579C20.8832 22.878 20.1813 23.2804 19.3878 23.5653C18.5943 23.8501 17.7967 23.9926 16.9951 23.9926C15.0402 23.9926 13.3856 23.3158 12.0314 21.9624C10.6771 20.6082 10 18.954 10 16.9999C10 15.0459 10.6763 13.3909 12.0289 12.035C13.3824 10.6783 15.0361 10 16.9902 10C18.945 10 20.6004 10.6771 21.9563 12.0314C23.3122 13.3856 23.9901 15.0406 23.9901 16.9963C23.9901 17.8443 23.84 18.6651 23.5396 19.4586C23.2385 20.2521 22.8438 20.9308 22.3555 21.4948L30 29.1381L29.1381 30.0024ZM16.9951 22.7706C18.6146 22.7706 19.9823 22.2131 21.0981 21.0981C22.2131 19.9831 22.7706 18.6154 22.7706 16.9951C22.7706 15.3755 22.2131 14.0082 21.0981 12.8932C19.9831 11.7783 18.6158 11.2208 16.9963 11.2208C15.3767 11.2208 14.009 11.7783 12.8932 12.8932C11.7783 14.0082 11.2208 15.3755 11.2208 16.9951C11.2208 18.6146 11.7783 19.9819 12.8932 21.0969C14.0082 22.2118 15.3755 22.7706 16.9951 22.7706Z" fill="#343434"/>
</svg>
