<svg width="24" height="24" viewBox="0 0 24 24" fill="none" xmlns="http://www.w3.org/2000/svg">
<path d="M12 0C9.62664 0 7.30656 0.703788 5.33317 2.02236C3.35978 3.34094 1.8217 5.21509 0.913452 7.4078C0.00519939 9.60051 -0.232441 12.0133 0.230582 14.3411C0.693605 16.6689 1.8365 18.8071 3.51473 20.4853C5.19296 22.1635 7.33116 23.3064 9.65893 23.7694C11.9867 24.2324 14.3995 23.9948 16.5922 23.0866C18.7849 22.1783 20.6591 20.6402 21.9777 18.6668C23.2962 16.6935 24 14.3734 24 12C24 8.8174 22.7357 5.76516 20.4853 3.51472C18.2349 1.26428 15.1826 0 12 0V0ZM17.4095 10.6626C16.339 10.7811 15.4216 10.3579 14.5042 9.81789C14.5042 9.90632 14.5311 12.6474 14.4853 13.9547C14.4395 15.2984 13.9595 16.4811 12.9063 17.3637C10.6737 19.2379 7.50475 18.2258 6.74843 15.36C6.33791 13.7984 6.69475 12.3916 7.92001 11.2784C8.61001 10.6468 9.46107 10.3658 10.3737 10.2489C10.5695 10.2237 10.7669 10.2126 10.9784 10.1937V12.3158C10.71 12.3821 10.4384 12.4405 10.1716 12.5195C9.98648 12.5729 9.80591 12.641 9.63159 12.7232C9.38842 12.8325 9.17368 12.9964 9.00403 13.2021C8.83438 13.4078 8.71437 13.6498 8.6533 13.9094C8.59223 14.1689 8.59173 14.4391 8.65186 14.6988C8.71199 14.9586 8.83111 15.201 9.00002 15.4074C9.20312 15.6882 9.47937 15.908 9.79869 16.0427C10.118 16.1774 10.4682 16.222 10.8111 16.1716C11.5011 16.0879 11.9337 15.6537 12.1895 15.03C12.3664 14.5364 12.4431 14.0125 12.4153 13.4889C12.4058 10.9121 12.4058 8.33684 12.4011 5.76C12.4033 5.7335 12.407 5.70714 12.4121 5.68105H14.4727C14.7032 7.40526 15.5779 8.4979 17.4095 8.65263V10.6626Z" fill="#343434" fill-opacity="0.5"/>
</svg>
